#!OML:ASF G:\JayActor3\Patient Classification 1\Patient 1\Session 6\male.ASF
:FULLY-SPECIFIED
:DEGREES
1685
root 8.42561 11.7237 -4.11203 33.343 -22.1105 11.9213
lowerback 46.1687 -3.26464 7.91889
upperback 14.2389 -0.574035 2.62997
thorax -5.02373 -0.253827 -0.921011
lowerneck -6.75312 -4.14932 -1.76118
upperneck 13.8053 -4.99343 -2.45783
head 5.2477 -2.6457 -0.79514
rclavicle 2.38542e-014 1.49089e-014
rhumerus -12.5692 -6.47979 -75.4253
rradius 132.948
rwrist 20.2818
rhand -4.16715 -24.3659
rfingers 7.12502
rthumb 21.5934 -53.182
lclavicle 2.38542e-014 1.49089e-014
lhumerus -31.9373 18.7256 76.9895
lradius 137.105
lwrist 5.69453
lhand -2.68011 34.411
lfingers 7.12502
lthumb 23.0209 63.0561
rfemur -100.284 -22.8668 14.4086
rtibia 111.832
rfoot -42.7695 -26.3344
rtoes -6.91136
lfemur -110.389 0.390473 -38.632
ltibia 91.1731
lfoot -14.5602 -6.5398
ltoes 6.13486
1686
root 8.43153 11.7241 -4.11418 33.314 -22.1659 11.9034
lowerback 46.1221 -3.23507 7.89684
upperback 14.2282 -0.554864 2.62558
thorax -5.02474 -0.24615 -0.923645
lowerneck -6.74313 -4.15061 -1.76013
upperneck 13.8233 -4.99381 -2.46877
head 5.25128 -2.64661 -0.798762
rclavicle -8.26944e-014 -5.08889e-014
rhumerus -12.5963 -6.45635 -75.4537
rradius 133.005
rwrist 20.3053
rhand -3.96729 -24.4088
rfingers 7.12502
rthumb 21.7854 -53.2027
lclavicle -8.26944e-014 -5.08889e-014
lhumerus -31.9484 18.7005 76.9821
lradius 137.107
lwrist 5.71228
lhand -2.6707 34.4179
lfingers 7.12502
lthumb 23.03 63.0619
rfemur -100.263 -22.8355 14.3788
rtibia 111.798
rfoot -42.7639 -26.3095
rtoes -6.88454
lfemur -110.369 0.426034 -38.6345
ltibia 91.1666
lfoot -14.5668 -6.53299
ltoes 6.13513
1687
root 8.43717 11.7244 -4.11656 33.2841 -22.2225 11.8857
lowerback 46.0769 -3.20274 7.8707
upperback 14.219 -0.53417 2.62129
thorax -5.02444 -0.237836 -0.924733
lowerneck -6.73323 -4.15009 -1.75628
upperneck 13.8449 -4.99237 -2.47695
head 5.25598 -2.64633 -0.801925
rclavicle 4.13472e-014 5.58585e-014
rhumerus -12.6238 -6.43395 -75.4882
rradius 133.062
rwrist 20.3265
rhand -3.77444 -24.4456
rfingers 7.12502
rthumb 21.9706 -53.2179
lclavicle 4.13472e-014 5.58585e-014
lhumerus -31.9584 18.67 76.9739
lradius 137.114
lwrist 5.7221
lhand -2.66464 34.4201
lfingers 7.12502
lthumb 23.0358 63.0634
rfemur -100.241 -22.8 14.3473
rtibia 111.765
rfoot -42.7672 -26.2783
rtoes -6.83812
lfemur -110.35 0.465048 -38.6382
ltibia 91.1603
lfoot -14.5691 -6.52974
ltoes 6.14215
1688
root 8.44264 11.7245 -4.11907 33.2556 -22.2824 11.8681
lowerback 46.0304 -3.16744 7.84042
upperback 14.2109 -0.512108 2.61581
thorax -5.02264 -0.228893 -0.925639
lowerneck -6.72178 -4.14869 -1.74893
upperneck 13.868 -4.9905 -2.4826
head 5.26086 -2.6455 -0.804829
rclavicle -5.725e-014 1.55052e-014
rhumerus -12.6532 -6.41101 -75.5277
rradius 133.118
rwrist 20.3477
rhand -3.58847 -24.4742
rfingers 7.12502
rthumb 22.1491 -53.2254
lclavicle -5.725e-014 1.55052e-014
lhumerus -31.9692 18.6344 76.9629
lradius 137.127
lwrist 5.72523
lhand -2.65951 34.4245
lfingers 7.12502
lthumb 23.0407 63.0672
rfemur -100.222 -22.7614 14.3148
rtibia 111.734
rfoot -42.7637 -26.2476
rtoes -6.79399
lfemur -110.334 0.506448 -38.6452
ltibia 91.1539
lfoot -14.5701 -6.52268
ltoes 6.13479
1689
root 8.44805 11.7247 -4.12167 33.2319 -22.3439 11.8466
lowerback 45.9817 -3.13134 7.80819
upperback 14.2032 -0.490421 2.60808
thorax -5.02001 -0.220053 -0.927858
lowerneck -6.71054 -4.14474 -1.7375
upperneck 13.8931 -4.98622 -2.48407
head 5.26641 -2.64303 -0.806977
rclavicle -6.83819e-014 -2.28602e-014
rhumerus -12.6821 -6.38415 -75.576
rradius 133.173
rwrist 20.3697
rhand -3.40497 -24.5004
rfingers 7.12502
rthumb 22.3253 -53.2306
lclavicle -6.83819e-014 -2.28602e-014
lhumerus -31.9825 18.6002 76.9476
lradius 137.148
lwrist 5.72993
lhand -2.6517 34.4282
lfingers 7.12502
lthumb 23.0482 63.0699
rfemur -100.209 -22.7176 14.2831
rtibia 111.705
rfoot -42.7487 -26.2189
rtoes -6.75965
lfemur -110.325 0.548645 -38.65
ltibia 91.1475
lfoot -14.5698 -6.50847
ltoes 6.11101
1690
root 8.45354 11.7249 -4.12432 33.2123 -22.4092 11.8261
lowerback 45.93 -3.09348 7.77206
upperback 14.1958 -0.468816 2.5979
thorax -5.01648 -0.211187 -0.930789
lowerneck -6.69735 -4.14212 -1.72452
upperneck 13.9164 -4.98471 -2.47997
head 5.27114 -2.64141 -0.807753
rclavicle 6.36111e-015 1.11319e-014
rhumerus -12.7124 -6.35395 -75.6273
rradius 133.228
rwrist 20.3949
rhand -3.21976 -24.5269
rfingers 7.12502
rthumb 22.503 -53.2357
lclavicle 6.36111e-015 1.11319e-014
lhumerus -31.9919 18.5666 76.9262
lradius 137.173
lwrist 5.74275
lhand -2.64371 34.4327
lfingers 7.12502
lthumb 23.0559 63.0735
rfemur -100.206 -22.6739 14.2514
rtibia 111.678
rfoot -42.7091 -26.2016
rtoes -6.7588
lfemur -110.318 0.587517 -38.6542
ltibia 91.1387
lfoot -14.5718 -6.48312
ltoes 6.06056
1691
root 8.45926 11.7254 -4.12703 33.1959 -22.4784 11.807
lowerback 45.8756 -3.05514 7.7324
upperback 14.188 -0.448568 2.58469
thorax -5.013 -0.202877 -0.934703
lowerneck -6.68273 -4.1401 -1.70652
upperneck 13.9399 -4.98445 -2.47701
head 5.2755 -2.64022 -0.809737
rclavicle -6.36111e-015 -4.31363e-014
rhumerus -12.7443 -6.31771 -75.6817
rradius 133.284
rwrist 20.4213
rhand -3.03667 -24.5545
rfingers 7.12502
rthumb 22.6788 -53.2419
lclavicle -6.36111e-015 -4.31363e-014
lhumerus -32.0015 18.5338 76.9012
lradius 137.205
lwrist 5.75847
lhand -2.64596 34.4504
lfingers 7.12502
lthumb 23.0537 63.0915
rfemur -100.211 -22.6287 14.2166
rtibia 111.649
rfoot -42.6497 -26.1941
rtoes -6.77888
lfemur -110.312 0.621955 -38.6535
ltibia 91.1266
lfoot -14.576 -6.45059
ltoes 6.00648
1692
root 8.46518 11.7263 -4.12978 33.1831 -22.5506 11.7864
lowerback 45.8191 -3.01728 7.69146
upperback 14.1797 -0.429819 2.56849
thorax -5.00962 -0.195151 -0.940579
lowerneck -6.66711 -4.13996 -1.68328
upperneck 13.9634 -4.98703 -2.4764
head 5.27947 -2.64025 -0.813448
rclavicle 3.49861e-014 5.82439e-014
rhumerus -12.7788 -6.27117 -75.7397
rradius 133.343
rwrist 20.4543
rhand -2.86355 -24.5841
rfingers 7.12502
rthumb 22.8449 -53.2511
lclavicle 3.49861e-014 5.82439e-014
lhumerus -32.008 18.5057 76.8721
lradius 137.238
lwrist 5.77628
lhand -2.65272 34.4602
lfingers 7.12502
lthumb 23.0472 63.1021
rfemur -100.221 -22.579 14.1832
rtibia 111.616
rfoot -42.5818 -26.1967
rtoes -6.80767
lfemur -110.307 0.654505 -38.6449
ltibia 91.111
lfoot -14.5829 -6.41571
ltoes 5.95292
1693
root 8.47138 11.7277 -4.13252 33.174 -22.6221 11.7611
lowerback 45.7601 -2.98202 7.65548
upperback 14.1711 -0.412376 2.55088
thorax -5.00573 -0.187834 -0.949903
lowerneck -6.65051 -4.14219 -1.65736
upperneck 13.9882 -4.99251 -2.47986
head 5.28348 -2.64181 -0.819029
rclavicle 1.59028e-014 1.25234e-014
rhumerus -12.8165 -6.218 -75.7953
rradius 133.404
rwrist 20.4878
rhand -2.6924 -24.6114
rfingers 7.12502
rthumb 23.0091 -53.258
lclavicle 1.59028e-014 1.25234e-014
lhumerus -32.0099 18.4774 76.8452
lradius 137.272
lwrist 5.78985
lhand -2.66137 34.4752
lfingers 7.12502
lthumb 23.0389 63.1181
rfemur -100.231 -22.5268 14.1561
rtibia 111.578
rfoot -42.5205 -26.1927
rtoes -6.81914
lfemur -110.301 0.685577 -38.6254
ltibia 91.0915
lfoot -14.5897 -6.38273
ltoes 5.91659
1694
root 8.47776 11.7297 -4.13526 33.1682 -22.6961 11.7302
lowerback 45.6985 -2.94815 7.61973
upperback 14.1633 -0.39708 2.53043
thorax -5.00046 -0.181349 -0.961532
lowerneck -6.63779 -4.14457 -1.62472
upperneck 14.0188 -4.99776 -2.4911
head 5.28956 -2.64346 -0.828271
rclavicle 1.59028e-015 5.96354e-014
rhumerus -12.8554 -6.15225 -75.8536
rradius 133.468
rwrist 20.5244
rhand -2.53122 -24.6322
rfingers 7.12502
rthumb 23.1638 -53.2595
lclavicle 1.59028e-015 5.96354e-014
lhumerus -32.0094 18.4556 76.8157
lradius 137.301
lwrist 5.7988
lhand -2.66744 34.4708
lfingers 7.12502
lthumb 23.0331 63.1145
rfemur -100.24 -22.4686 14.1351
rtibia 111.533
rfoot -42.461 -26.193
rtoes -6.83081
lfemur -110.294 0.719979 -38.6
ltibia 91.0686
lfoot -14.5988 -6.34936
ltoes 5.88091
